# xmcd
#
# Track frame offsets: 
#        300
#        37240
#        54212
#        81536
#        95854
#        115719
#        143560
#        170344
#        192482
#        208052
#        231310
#
# Disc length: 3411 seconds
#
# Revision: 1
# Processed by: cddbd v1.5.2PL0 Copyright (c) Steve Scherf et al.
# Submitted via: ExactAudioCopy v1.0b1
#
DISCID=a10d4f0b
DTITLE=Otis Rush and His Bluesband - Joe's Place Live (Live in Boston)
DYEAR=1973
DGENRE=Chicago Blues
TTITLE0=Watermelon Man
TTITLE1=It takes a little Time
TTITLE2=I can´t quit you Baby
TTITLE3=Keep loving me Baby
TTITLE4=Popcorn
TTITLE5=Gambler´s Blues
TTITLE6=Why I sing the Blues
TTITLE7=Please love me
TTITLE8=Please love me
TTITLE9=Everything´s gonna work out fine
TTITLE10=Please please Please
EXTD=
EXTT0=
EXTT1=
EXTT2=
EXTT3=
EXTT4=
EXTT5=
EXTT6=
EXTT7=
EXTT8=
EXTT9=
EXTT10=
PLAYORDER=
